<svg xmlns="http://www.w3.org/2000/svg" x="0" y="0" enableBackground="new 0 0 101.5 113.1" version="1.1" viewBox="0 0 101.5 113.1" xmlSpace="preserve"><path fill="currentColor" d="M29.8 0h15.9c0 1.6-.1 4.2-.2 7.4-.1 2.6-.2 4.2-.2 5.3l-.2 26.4s-.2 7.9 0 13.2V61.2c0 4.9.3 9.8-.7 13.9-4.2 16.6-13.4 26.1-27.8 32.4-4.2 1.8-11.1 5.3-16.6 5.5.1-.5.1-.5.2-.7 1.9-2.1 4.4-3.8 6.7-5.5 1.5-1.2 3-2.5 4.5-3.7 4.5-3.9 10.7-10.2 14.7-19.6 4.9-11.2 3.6-20.8 3.6-33.4.1.1.1-50.1.1-50.1zm26.6 0C71.3-.2 82.8 1 89 9.4c1.6 2.1 3.1 4.8 4.1 7.4 4.7 12.9-3.2 20.7-11 25.2 0 0-.3.3-.2.7.1.3.3.5.7.5 1.3.6 3.6 1.8 5.9 3.3 1.5 1 2.6 1.8 3.6 2.7.3.3.6.5.7.7.3.3.7.6 1.1.9 1.8 2 4.3 5.3 6 10.1 3.8 10.9-.1 20.5-1.2 22.8-7.8 16.1-19.2 20.2-43 20.2-3.4 0-7.1 0-10.1-.2V87.2c13.3 1.9 28.6 2.3 34.8-6.2 7.7-10.6 1.8-23.7-6-29.5-3-2.2-12.7-2.2-18-2.4v-14c10.7.9 19.4 1 21.8-8.6.6-2.4-.1-5-.7-6.7-3.1-8.2-10.8-9-21.1-7.7V0z"/></svg>